# xmcd CD database file
#
# Track frame offsets:
#	150
#	18841
#	35685
#	53001
#	65815
#	85617
#	103497
#	116344
#	131869
#	148846
#	163723
#	182209
#	195732
#	213234
#	226792
#	243745
#	258616
#
# Disc length: 3661 seconds
#
# Revision: 0
# Processed by: cddbd v1.5.2PL0 Copyright (c) Steve Scherf et al.
# Submitted via: CDex 1.70beta2
#
DISCID=fc0e4b11
DTITLE=Trisha Yearwood - Greatest Hits
DYEAR=2007
DGENRE=Country
TTITLE0=She's In Love With The Boy
TTITLE1=Like We Never Had A Broken Heart
TTITLE2=The Woman Before Me
TTITLE3=Wrong Side Of Memphis
TTITLE4=Walkaway Joe
TTITLE5=The Song Remembers When
TTITLE6=Xxx's And Ooo's (An American Girl)
TTITLE7=Thinkin' About You
TTITLE8=Believe Me Baby (I Lied)
TTITLE9=Everybody Knows
TTITLE10=How Do I Live
TTITLE11=Perfect Love
TTITLE12=There Goes My Baby
TTITLE13=Powerful Thing
TTITLE14=I Would've Loved You Anyway
TTITLE15=Just A Cup Of Coffee
TTITLE16=Nothin' To Lose
EXTD=YEAR: 2007
EXTT0=
EXTT1=
EXTT2=
EXTT3=
EXTT4=
EXTT5=
EXTT6=
EXTT7=
EXTT8=
EXTT9=
EXTT10=
EXTT11=
EXTT12=
EXTT13=
EXTT14=
EXTT15=
EXTT16=
PLAYORDER=
